<svg width="22" height="21" viewBox="0 0 22 21" fill="none" xmlns="http://www.w3.org/2000/svg">
<path d="M11.4125 16.8781L16.1375 19.8781C16.7469 20.2625 17.4969 19.6906 17.3187 18.9875L15.95 13.6062C15.913 13.4571 15.9189 13.3005 15.967 13.1545C16.0151 13.0085 16.1034 12.8791 16.2219 12.7812L20.4594 9.24684C21.0125 8.78746 20.7312 7.85934 20.0094 7.81246L14.4781 7.45621C14.3272 7.44743 14.1821 7.39488 14.0606 7.30497C13.939 7.21507 13.8463 7.09171 13.7937 6.94996L11.7312 1.75621C11.6767 1.60612 11.5772 1.47647 11.4464 1.38485C11.3156 1.29323 11.1597 1.24408 11 1.24408C10.8403 1.24408 10.6844 1.29323 10.5536 1.38485C10.4228 1.47647 10.3233 1.60612 10.2687 1.75621L8.20625 6.94996C8.15368 7.09171 8.06096 7.21507 7.93943 7.30497C7.81789 7.39488 7.67279 7.44743 7.52187 7.45621L1.99062 7.81246C1.26875 7.85934 0.987496 8.78746 1.54062 9.24684L5.77812 12.7812C5.89656 12.8791 5.98492 13.0085 6.03302 13.1545C6.08112 13.3005 6.08701 13.4571 6.05 13.6062L4.78437 18.5937C4.56875 19.4375 5.46875 20.1218 6.19062 19.6625L10.5875 16.8781C10.7108 16.7997 10.8539 16.758 11 16.758C11.1461 16.758 11.2892 16.7997 11.4125 16.8781Z" stroke="#FACF41" stroke-width="1.5" stroke-linecap="round" stroke-linejoin="round"/>
</svg>
